<svg width="143" height="37" viewBox="0 0 143 37" fill="none" xmlns="http://www.w3.org/2000/svg">
<path d="M53.8043 7.05303C53.7308 5.94455 54.5748 4.98858 55.6838 4.92407L138.369 0.114283C139.459 0.0508702 140.399 0.873584 140.48 1.96256L142.486 28.936C142.569 30.0475 141.727 31.0121 140.614 31.0806L57.7305 36.1774C56.6317 36.2449 55.6849 35.4119 55.6121 34.3135L53.8043 7.05303Z" fill="#FEC830"/>
<path d="M3.91024 34.4389C2.79569 34.5026 1.84465 33.6512 1.78799 32.5362C1.42367 25.3684 0.48092 10.8935 0.132218 5.59765C0.0592736 4.48981 0.902727 3.54489 2.01101 3.47911L45.0429 0.924919C45.703 0.885742 46.3397 1.1753 46.744 1.69848L56.9221 14.8697C57.4298 15.5267 57.4788 16.4291 57.0451 17.1372L48.5377 31.0277C48.1953 31.5867 47.6007 31.9424 46.9463 31.9798L3.91024 34.4389Z" fill="black"/>
<path d="M11.1247 18.7123C11.0515 17.7262 11.1827 16.7357 11.5102 15.8016C11.8201 14.9044 12.3085 14.0777 12.9464 13.3703C13.6038 12.6545 14.3969 12.0737 15.2806 11.6609C16.2263 11.2118 17.2511 10.9484 18.2981 10.8855C19.5008 10.8053 20.5762 10.91 21.5242 11.1997C22.4936 11.4994 23.4018 11.9665 24.2068 12.5794L22.0792 15.4854C21.571 15.108 21.0059 14.8122 20.4047 14.609C19.8075 14.4247 19.18 14.3566 18.5567 14.4085C18.0684 14.4326 17.591 14.56 17.1567 14.7822C16.7223 15.0045 16.3411 15.3163 16.0388 15.6967C15.387 16.4873 15.098 17.4232 15.1719 18.5044C15.2502 19.6555 15.6778 20.5812 16.4547 21.2813C17.2317 21.9815 18.1833 22.2934 19.3095 22.2172C20.2296 22.1548 20.9775 21.9003 21.5532 21.4538L21.4324 19.6829L18.6006 19.8728L18.4081 17.047L24.9671 16.6085L25.4019 22.98C23.7166 24.5398 21.7085 25.3968 19.3777 25.551C17.9134 25.6495 16.5704 25.4267 15.3488 24.8825C14.1529 24.3614 13.1288 23.5186 12.3927 22.4499C11.6437 21.3713 11.221 20.1255 11.1247 18.7123Z" fill="white"/>
<path d="M28.5998 17.5645C28.5292 16.5844 28.6641 15.6005 28.9961 14.6745C29.3124 13.7739 29.8035 12.9432 30.4417 12.2292C31.0999 11.5073 31.8942 10.9198 32.78 10.4998C34.6824 9.59609 36.8622 9.44871 38.871 10.088C39.7996 10.3833 40.6604 10.8567 41.4044 11.4811C42.128 12.1022 42.7199 12.8593 43.1458 13.7086C43.5955 14.5904 43.8595 15.5536 43.9216 16.5397C43.9914 17.5199 43.8567 18.5038 43.5259 19.4302C43.2121 20.3316 42.7225 21.1631 42.085 21.8776C41.429 22.5983 40.6367 23.1847 39.7528 23.6037C38.8136 24.0581 37.793 24.3243 36.7495 24.3872C35.3122 24.4834 33.9843 24.2448 32.7658 23.6712C31.5813 23.1245 30.5689 22.2696 29.8367 21.1978C29.1012 20.1192 28.6738 18.8638 28.5998 17.5645ZM32.6443 17.2937C32.7149 18.3379 33.1201 19.2114 33.8596 19.9142C34.5992 20.6171 35.4959 20.933 36.5497 20.8622C37.6165 20.7913 38.4625 20.3637 39.0878 19.5793C39.713 18.7949 39.9894 17.8711 39.9169 16.8077C39.8458 15.7635 39.4407 14.89 38.7015 14.1872C37.9624 13.4844 37.0581 13.1686 35.9886 13.2399C34.9352 13.3104 34.096 13.7377 33.4707 14.5221C32.8455 15.3065 32.57 16.2304 32.6443 17.2937Z" fill="white"/>
<path d="M66.2055 27.3834L65.2427 13.278L69.1879 13.0146L70.1542 27.12L66.2055 27.3834Z" fill="white"/>
<path d="M71.4545 16.3107L71.2202 12.8766L83.7217 12.041L83.956 15.4744L79.6745 15.7592L80.403 26.4345L76.4578 26.6979L75.7292 16.0226L71.4545 16.3107Z" fill="white"/>
<path d="M83.6914 20.7494C83.6351 19.9863 83.7235 19.2195 83.952 18.4885C84.1623 17.799 84.5063 17.1566 84.9648 16.5974C85.4279 16.0454 86.0003 15.5933 86.6468 15.269C87.3337 14.9206 88.0862 14.7171 88.8567 14.6714C89.7777 14.6099 90.6104 14.7142 91.355 14.9843C92.0568 15.2278 92.6878 15.6377 93.1929 16.1782C93.6811 16.7137 94.0666 17.3328 94.3306 18.0052C94.6151 18.7314 94.7835 19.4972 94.8296 20.2748C94.8539 20.6224 94.8647 20.8851 94.864 21.0629L87.4901 21.5556C87.6832 22.1426 87.9983 22.578 88.4354 22.8619C88.8725 23.1458 89.3948 23.2672 90.0025 23.2262C90.8596 23.1669 91.6482 22.734 92.3684 21.9273L94.6257 23.5518C93.5525 25.092 92.0056 25.9296 89.985 26.0646C88.8389 26.1417 87.8036 25.9739 86.879 25.5613C85.9705 25.1639 85.1969 24.5156 84.6509 23.6941C84.0877 22.8599 83.7679 21.8783 83.6914 20.7494ZM87.297 19.5996L91.1227 19.3436C91.0079 18.7383 90.7698 18.2704 90.4083 17.9397C90.0469 17.609 89.6042 17.4608 89.0802 17.4952C88.8439 17.5067 88.6129 17.5679 88.4024 17.6748C88.1919 17.7816 88.0068 17.9317 87.8594 18.1148C87.543 18.4946 87.3555 18.9895 87.297 19.5996Z" fill="white"/>
<path d="M96.2077 19.9125C96.1515 19.1492 96.2397 18.3822 96.4677 17.651C96.6782 16.9615 97.0222 16.3192 97.4805 15.7598C97.9436 15.2082 98.5158 14.7562 99.1618 14.4315C99.8489 14.083 100.602 13.8797 101.372 13.8345C102.293 13.773 103.126 13.8771 103.871 14.1467C104.573 14.3894 105.204 14.7986 105.709 15.3386C106.198 15.8738 106.583 16.4927 106.847 17.165C107.131 17.8924 107.3 18.6592 107.346 19.4379C107.37 19.7855 107.381 20.0482 107.38 20.226L100.006 20.7194C100.2 21.3059 100.515 21.7411 100.952 22.025C101.389 22.3089 101.911 22.4305 102.519 22.39C103.38 22.3316 104.169 21.8982 104.886 21.0897L107.143 22.7142C106.07 24.2544 104.523 25.092 102.503 25.2271C101.356 25.3042 100.321 25.1364 99.3967 24.7237C98.4882 24.3262 97.7147 23.678 97.1686 22.8566C96.605 22.0223 96.2847 21.0409 96.2077 19.9125ZM99.8134 18.762L103.639 18.506C103.524 17.9012 103.286 17.4333 102.924 17.1021C102.562 16.771 102.119 16.6228 101.596 16.6576C101.36 16.6691 101.129 16.7305 100.918 16.8374C100.708 16.9444 100.523 17.0946 100.376 17.278C100.058 17.6586 99.871 18.1532 99.8134 18.762Z" fill="white"/>
<path d="M109.543 24.4865L108.8 13.5853L112.665 13.3266L112.771 14.8708C113.633 13.614 114.691 12.9438 115.944 12.86C117.11 12.7815 118.05 13.0777 118.765 13.7484C119.48 14.4191 119.88 15.3773 119.965 16.623L120.451 23.7565L116.586 24.0146L116.18 18.1264C116.141 17.5439 115.969 17.1036 115.665 16.8055C115.36 16.5073 114.973 16.3736 114.501 16.4044C114.016 16.4373 113.634 16.6239 113.357 16.9639C113.081 17.3039 112.962 17.7621 113 18.3383L113.402 24.2265L109.543 24.4865Z" fill="white"/>
<path d="M121.714 22.2519L123.006 19.8366C124.334 20.5612 125.623 20.8817 126.876 20.7979C127.525 20.7533 127.836 20.5305 127.808 20.1294C127.795 19.9382 127.652 19.7891 127.379 19.6822C127.106 19.5752 126.636 19.4609 125.978 19.3386C125.478 19.2441 125.052 19.1509 124.7 19.0591C124.328 18.9603 123.965 18.8304 123.616 18.6707C123.287 18.53 122.983 18.3394 122.714 18.1058C122.468 17.8766 122.268 17.6032 122.125 17.3003C121.956 16.9476 121.859 16.5656 121.839 16.1759C121.759 15.0216 122.105 14.0951 122.876 13.3963C123.648 12.6975 124.689 12.3044 126.001 12.217C126.816 12.1632 127.634 12.2253 128.431 12.4015C129.203 12.5647 129.946 12.8421 130.634 13.2245L129.478 15.742C128.906 15.4868 128.311 15.2869 127.7 15.1451C127.105 15.0087 126.589 14.9552 126.152 14.9846C125.86 15.0038 125.641 15.0664 125.496 15.1725C125.427 15.2174 125.372 15.2798 125.336 15.3531C125.301 15.4264 125.286 15.5079 125.293 15.5889C125.306 15.781 125.448 15.9301 125.718 16.0362C125.988 16.1422 126.464 16.269 127.146 16.4166C127.646 16.5173 128.072 16.6169 128.425 16.7154C128.796 16.8215 129.159 16.9556 129.51 17.1165C129.838 17.2568 130.143 17.4472 130.412 17.6807C130.655 17.9064 130.855 18.1748 131 18.4722C131.168 18.8133 131.264 19.1843 131.284 19.5632C131.365 20.754 131.024 21.6957 130.259 22.3883C129.495 23.0808 128.423 23.4732 127.045 23.5655C125.077 23.6961 123.3 23.2582 121.714 22.2519Z" fill="white"/>
</svg>
